<svg width="1081" height="306" viewBox="0 0 1081 306" fill="none" xmlns="http://www.w3.org/2000/svg">
<mask id="path-1-outside-1_476_7" maskUnits="userSpaceOnUse" x="0" y="0" width="306" height="306" fill="black">
<rect fill="white" width="306" height="306"/>
<path d="M4.01012 152.758C3.03556 70.0922 72.6051 2.91763 157.048 4.01321C193.444 6.05788 225.987 17.8354 252.765 43.1167C285.722 74.2325 302.958 112.533 301.544 158.064C300.417 194.25 287.722 226.264 262.517 252.826C232.675 284.266 196.081 301.458 152.748 301.452C71.1401 301.445 3.92094 235.678 4.01012 152.758ZM229.114 265.597C233.643 262.119 237.885 258.96 242.007 255.654C244.37 253.762 246.695 251.775 248.765 249.577C251.886 246.265 254.924 242.844 257.708 239.252C261.797 233.965 265.982 228.691 269.473 223.015C272.791 217.627 275.46 211.805 278.059 206.008C280.053 201.556 281.473 196.842 283.193 192.263C283.531 191.365 283.301 190.9 282.511 190.454C279.83 188.938 277.174 187.364 274.505 185.817C267.046 181.485 259.593 177.135 252.115 172.829C245.153 168.822 238.153 164.873 231.191 160.873C225.535 157.624 219.898 154.344 214.26 151.057C210.177 148.681 206.12 146.254 202.024 143.898C200.19 142.84 198.285 141.891 195.928 140.63C207.05 182.466 218.031 223.831 229.114 265.597ZM130.735 191.995C130.06 191.46 129.569 190.957 128.983 190.626C124.193 187.88 119.371 185.186 114.588 182.428C105.568 177.23 96.5679 172.001 87.5675 166.771C81.7838 163.408 76.0384 159.994 70.242 156.65C63.1462 152.56 56.0058 148.548 48.8972 144.471C43.3492 141.292 37.8267 138.069 32.2915 134.872C28.4569 132.662 24.6224 130.451 20.7751 128.26C20.3037 127.993 19.4693 127.547 19.3101 127.7C18.8578 128.139 18.5075 128.821 18.412 129.458C18.0616 131.712 17.7686 133.974 17.5712 136.241C17.1125 141.554 16.38 146.872 16.3928 152.185C16.4055 157.739 17.0743 163.3 17.6221 168.841C17.9916 172.619 18.3928 176.421 19.2145 180.109C20.4248 185.517 21.686 190.963 23.5459 196.174C26.0619 203.225 28.7181 210.257 32.4507 216.818C33.2023 218.136 33.9476 217.901 34.8776 217.652C38.9287 216.557 42.9479 215.372 46.9991 214.289C49.9928 213.486 53.0184 212.837 56.0121 212.028C59.9486 210.97 63.8532 209.773 67.796 208.728C71.8535 207.652 75.9556 206.747 80.0067 205.664C85.6821 204.142 91.3193 202.467 96.9946 200.951C101.938 199.632 106.938 198.505 111.881 197.186C118.072 195.556 124.219 193.804 130.735 191.995ZM265.702 76.6148C265.231 76.0415 264.753 75.481 264.294 74.895C261.135 70.863 258.198 66.6335 254.791 62.8244C247.204 54.3337 238.752 46.7983 229.223 40.4732C223.375 36.5941 217.49 32.7978 211.069 29.9888C205.037 27.3517 198.833 25.0968 192.68 22.7273C191.699 22.3515 190.986 22.5299 190.31 23.7337C186.113 31.199 181.743 38.5751 177.444 45.983C172.233 54.9579 167.029 63.9328 161.825 72.9076C158.252 79.0671 154.698 85.2393 151.118 91.3924C149.035 94.9722 146.888 98.5074 144.812 102.093C143.455 104.438 142.181 106.826 140.869 109.196C140.971 109.387 141.066 109.571 141.168 109.763C182.648 98.7239 224.127 87.6789 265.702 76.6148ZM113.498 131.133C135.245 93.7492 156.914 56.4993 178.654 19.1285C177.253 19.0393 176.074 19.0265 174.909 18.88C169.921 18.2494 164.946 17.1793 159.946 17.0265C153.494 16.829 147.003 17.1475 140.557 17.6252C135.678 17.9883 130.799 18.7272 126.009 19.7208C120.129 20.9374 114.199 22.1795 108.556 24.1732C102.16 26.4345 96.071 29.5684 89.8288 32.2818C87.1153 33.4602 87.542 34.1545 88.0643 36.4094C88.6058 38.7343 89.3128 41.021 89.9243 43.3269C91.1855 48.0659 92.4085 52.8177 93.6824 57.5567C95.0009 62.455 96.3831 67.3405 97.6889 72.2452C99.1922 77.8887 100.594 83.5641 102.116 89.2013C103.88 95.7302 105.772 102.221 107.543 108.75C109.562 116.151 111.498 123.585 113.498 131.133ZM39.9287 229.016C40.9033 230.328 41.7504 231.576 42.7059 232.748C46.5723 237.5 50.1584 242.538 54.4325 246.895C60.8021 253.399 67.5667 259.552 75.274 264.507C79.9367 267.501 84.6184 270.489 89.4657 273.164C96.2558 276.909 103.492 279.693 110.83 282.196C114.205 283.349 114.613 283.298 115.798 281.228C120.199 273.559 124.607 265.883 129.04 258.227C134.225 249.252 139.436 240.29 144.64 231.328C149.876 222.308 155.124 213.289 160.36 204.269C161.87 201.671 163.367 199.059 164.87 196.448C164.793 196.295 164.717 196.135 164.641 195.983C123.149 206.977 81.6628 217.964 39.9287 229.016ZM175.055 113.591C175.036 113.75 175.023 113.903 175.004 114.062C212.107 135.477 249.211 156.885 286.626 178.479C287.365 174.103 288.467 170.052 288.645 165.962C288.977 158.21 288.837 150.427 288.754 142.662C288.728 140.152 288.403 137.617 287.97 135.133C287.187 130.598 286.397 126.05 285.289 121.591C284.053 116.623 282.76 111.635 280.951 106.864C278.677 100.858 275.868 95.0614 273.275 89.1758C272.912 88.3541 272.53 87.5197 271.358 87.8254C270.231 88.1184 269.097 88.3923 267.969 88.6981C263.065 90.0421 258.173 91.4179 253.268 92.7364C249.434 93.7683 245.574 94.7047 241.733 95.7302C236.822 97.0424 231.93 98.4309 227.012 99.7304C223.006 100.794 218.974 101.743 214.967 102.801C210.012 104.113 205.082 105.514 200.132 106.833C197.03 107.661 193.903 108.38 190.801 109.189C187.533 110.043 184.272 110.928 181.017 111.833C179.017 112.393 177.042 113.005 175.055 113.591ZM109.103 164.733C109.237 164.644 109.377 164.555 109.511 164.465C98.4788 123.19 87.4465 81.908 76.325 40.2758C74.7008 41.4988 73.4205 42.3969 72.2102 43.3842C67.4521 47.2633 62.4965 50.9322 58.0377 55.1299C54.1713 58.7733 50.8463 62.99 47.3558 67.0221C42.4129 72.7293 38.1134 78.9015 34.4635 85.5132C29.6544 94.2142 25.4887 103.195 22.444 112.693C21.8516 114.54 22.7115 115.1 23.7625 115.718C29.8965 119.317 36.0623 122.859 42.2282 126.4C52.0438 132.037 61.8786 137.655 71.6943 143.286C77.8155 146.796 83.9304 150.318 90.0326 153.854C94.1155 156.217 98.1667 158.643 102.262 161C104.517 162.3 106.823 163.491 109.103 164.733ZM191.775 174.759C170.029 212.283 148.576 249.316 127.028 286.502C127.996 286.598 128.747 286.648 129.493 286.757C134.123 287.406 138.735 288.477 143.385 288.629C152.602 288.942 161.857 289.222 171.004 287.413C176.316 286.362 181.711 285.661 186.973 284.394C191.546 283.292 196.062 281.833 200.451 280.132C205.91 278.018 211.216 275.495 216.579 273.132C217.388 272.775 218.19 272.361 217.891 271.202C217.362 269.176 216.878 267.132 216.318 265.113C214.999 260.342 213.617 255.584 212.324 250.806C211.26 246.87 210.324 242.902 209.273 238.965C208.19 234.92 207.024 230.895 205.929 226.85C204.903 223.079 203.948 219.283 202.922 215.512C201.833 211.525 200.661 207.563 199.597 203.569C198.534 199.581 197.597 195.556 196.546 191.562C195.463 187.46 194.311 183.371 193.17 179.281C192.769 177.893 192.317 176.523 191.775 174.759ZM118.206 148.376C118.76 150.758 119.206 152.879 119.76 154.968C121.359 160.994 122.983 167.013 124.665 173.02C124.836 173.625 125.34 174.3 125.881 174.619C133.072 178.829 140.289 182.982 147.519 187.129C147.844 187.313 148.341 187.403 148.697 187.32C151.589 186.619 154.475 185.887 157.354 185.116C161.456 184.02 165.583 182.995 169.628 181.721C171.475 181.141 173.66 181.332 174.909 179.084C178.864 171.956 183.023 164.943 187.081 157.873C187.272 157.548 187.387 157.07 187.304 156.713C186.871 154.834 186.38 152.962 185.883 151.095C184.539 146.089 183.195 141.082 181.813 136.082C181.189 133.814 180.839 131.553 178.297 130.19C172.24 126.942 166.354 123.368 160.386 119.948C158.589 118.916 156.901 117.967 154.551 118.846C151.398 120.03 148.06 120.744 144.786 121.597C141.678 122.406 138.493 122.961 135.455 123.961C133.754 124.521 131.792 124.477 130.614 126.629C126.996 133.216 123.04 139.611 119.244 146.102C118.792 146.885 118.486 147.758 118.206 148.376Z"/>
</mask>
<path d="M4.01012 152.758C3.03556 70.0922 72.6051 2.91763 157.048 4.01321C193.444 6.05788 225.987 17.8354 252.765 43.1167C285.722 74.2325 302.958 112.533 301.544 158.064C300.417 194.25 287.722 226.264 262.517 252.826C232.675 284.266 196.081 301.458 152.748 301.452C71.1401 301.445 3.92094 235.678 4.01012 152.758ZM229.114 265.597C233.643 262.119 237.885 258.96 242.007 255.654C244.37 253.762 246.695 251.775 248.765 249.577C251.886 246.265 254.924 242.844 257.708 239.252C261.797 233.965 265.982 228.691 269.473 223.015C272.791 217.627 275.46 211.805 278.059 206.008C280.053 201.556 281.473 196.842 283.193 192.263C283.531 191.365 283.301 190.9 282.511 190.454C279.83 188.938 277.174 187.364 274.505 185.817C267.046 181.485 259.593 177.135 252.115 172.829C245.153 168.822 238.153 164.873 231.191 160.873C225.535 157.624 219.898 154.344 214.26 151.057C210.177 148.681 206.12 146.254 202.024 143.898C200.19 142.84 198.285 141.891 195.928 140.63C207.05 182.466 218.031 223.831 229.114 265.597ZM130.735 191.995C130.06 191.46 129.569 190.957 128.983 190.626C124.193 187.88 119.371 185.186 114.588 182.428C105.568 177.23 96.5679 172.001 87.5675 166.771C81.7838 163.408 76.0384 159.994 70.242 156.65C63.1462 152.56 56.0058 148.548 48.8972 144.471C43.3492 141.292 37.8267 138.069 32.2915 134.872C28.4569 132.662 24.6224 130.451 20.7751 128.26C20.3037 127.993 19.4693 127.547 19.3101 127.7C18.8578 128.139 18.5075 128.821 18.412 129.458C18.0616 131.712 17.7686 133.974 17.5712 136.241C17.1125 141.554 16.38 146.872 16.3928 152.185C16.4055 157.739 17.0743 163.3 17.6221 168.841C17.9916 172.619 18.3928 176.421 19.2145 180.109C20.4248 185.517 21.686 190.963 23.5459 196.174C26.0619 203.225 28.7181 210.257 32.4507 216.818C33.2023 218.136 33.9476 217.901 34.8776 217.652C38.9287 216.557 42.9479 215.372 46.9991 214.289C49.9928 213.486 53.0184 212.837 56.0121 212.028C59.9486 210.97 63.8532 209.773 67.796 208.728C71.8535 207.652 75.9556 206.747 80.0067 205.664C85.6821 204.142 91.3193 202.467 96.9946 200.951C101.938 199.632 106.938 198.505 111.881 197.186C118.072 195.556 124.219 193.804 130.735 191.995ZM265.702 76.6148C265.231 76.0415 264.753 75.481 264.294 74.895C261.135 70.863 258.198 66.6335 254.791 62.8244C247.204 54.3337 238.752 46.7983 229.223 40.4732C223.375 36.5941 217.49 32.7978 211.069 29.9888C205.037 27.3517 198.833 25.0968 192.68 22.7273C191.699 22.3515 190.986 22.5299 190.31 23.7337C186.113 31.199 181.743 38.5751 177.444 45.983C172.233 54.9579 167.029 63.9328 161.825 72.9076C158.252 79.0671 154.698 85.2393 151.118 91.3924C149.035 94.9722 146.888 98.5074 144.812 102.093C143.455 104.438 142.181 106.826 140.869 109.196C140.971 109.387 141.066 109.571 141.168 109.763C182.648 98.7239 224.127 87.6789 265.702 76.6148ZM113.498 131.133C135.245 93.7492 156.914 56.4993 178.654 19.1285C177.253 19.0393 176.074 19.0265 174.909 18.88C169.921 18.2494 164.946 17.1793 159.946 17.0265C153.494 16.829 147.003 17.1475 140.557 17.6252C135.678 17.9883 130.799 18.7272 126.009 19.7208C120.129 20.9374 114.199 22.1795 108.556 24.1732C102.16 26.4345 96.071 29.5684 89.8288 32.2818C87.1153 33.4602 87.542 34.1545 88.0643 36.4094C88.6058 38.7343 89.3128 41.021 89.9243 43.3269C91.1855 48.0659 92.4085 52.8177 93.6824 57.5567C95.0009 62.455 96.3831 67.3405 97.6889 72.2452C99.1922 77.8887 100.594 83.5641 102.116 89.2013C103.88 95.7302 105.772 102.221 107.543 108.75C109.562 116.151 111.498 123.585 113.498 131.133ZM39.9287 229.016C40.9033 230.328 41.7504 231.576 42.7059 232.748C46.5723 237.5 50.1584 242.538 54.4325 246.895C60.8021 253.399 67.5667 259.552 75.274 264.507C79.9367 267.501 84.6184 270.489 89.4657 273.164C96.2558 276.909 103.492 279.693 110.83 282.196C114.205 283.349 114.613 283.298 115.798 281.228C120.199 273.559 124.607 265.883 129.04 258.227C134.225 249.252 139.436 240.29 144.64 231.328C149.876 222.308 155.124 213.289 160.36 204.269C161.87 201.671 163.367 199.059 164.87 196.448C164.793 196.295 164.717 196.135 164.641 195.983C123.149 206.977 81.6628 217.964 39.9287 229.016ZM175.055 113.591C175.036 113.75 175.023 113.903 175.004 114.062C212.107 135.477 249.211 156.885 286.626 178.479C287.365 174.103 288.467 170.052 288.645 165.962C288.977 158.21 288.837 150.427 288.754 142.662C288.728 140.152 288.403 137.617 287.97 135.133C287.187 130.598 286.397 126.05 285.289 121.591C284.053 116.623 282.76 111.635 280.951 106.864C278.677 100.858 275.868 95.0614 273.275 89.1758C272.912 88.3541 272.53 87.5197 271.358 87.8254C270.231 88.1184 269.097 88.3923 267.969 88.6981C263.065 90.0421 258.173 91.4179 253.268 92.7364C249.434 93.7683 245.574 94.7047 241.733 95.7302C236.822 97.0424 231.93 98.4309 227.012 99.7304C223.006 100.794 218.974 101.743 214.967 102.801C210.012 104.113 205.082 105.514 200.132 106.833C197.03 107.661 193.903 108.38 190.801 109.189C187.533 110.043 184.272 110.928 181.017 111.833C179.017 112.393 177.042 113.005 175.055 113.591ZM109.103 164.733C109.237 164.644 109.377 164.555 109.511 164.465C98.4788 123.19 87.4465 81.908 76.325 40.2758C74.7008 41.4988 73.4205 42.3969 72.2102 43.3842C67.4521 47.2633 62.4965 50.9322 58.0377 55.1299C54.1713 58.7733 50.8463 62.99 47.3558 67.0221C42.4129 72.7293 38.1134 78.9015 34.4635 85.5132C29.6544 94.2142 25.4887 103.195 22.444 112.693C21.8516 114.54 22.7115 115.1 23.7625 115.718C29.8965 119.317 36.0623 122.859 42.2282 126.4C52.0438 132.037 61.8786 137.655 71.6943 143.286C77.8155 146.796 83.9304 150.318 90.0326 153.854C94.1155 156.217 98.1667 158.643 102.262 161C104.517 162.3 106.823 163.491 109.103 164.733ZM191.775 174.759C170.029 212.283 148.576 249.316 127.028 286.502C127.996 286.598 128.747 286.648 129.493 286.757C134.123 287.406 138.735 288.477 143.385 288.629C152.602 288.942 161.857 289.222 171.004 287.413C176.316 286.362 181.711 285.661 186.973 284.394C191.546 283.292 196.062 281.833 200.451 280.132C205.91 278.018 211.216 275.495 216.579 273.132C217.388 272.775 218.19 272.361 217.891 271.202C217.362 269.176 216.878 267.132 216.318 265.113C214.999 260.342 213.617 255.584 212.324 250.806C211.26 246.87 210.324 242.902 209.273 238.965C208.19 234.92 207.024 230.895 205.929 226.85C204.903 223.079 203.948 219.283 202.922 215.512C201.833 211.525 200.661 207.563 199.597 203.569C198.534 199.581 197.597 195.556 196.546 191.562C195.463 187.46 194.311 183.371 193.17 179.281C192.769 177.893 192.317 176.523 191.775 174.759ZM118.206 148.376C118.76 150.758 119.206 152.879 119.76 154.968C121.359 160.994 122.983 167.013 124.665 173.02C124.836 173.625 125.34 174.3 125.881 174.619C133.072 178.829 140.289 182.982 147.519 187.129C147.844 187.313 148.341 187.403 148.697 187.32C151.589 186.619 154.475 185.887 157.354 185.116C161.456 184.02 165.583 182.995 169.628 181.721C171.475 181.141 173.66 181.332 174.909 179.084C178.864 171.956 183.023 164.943 187.081 157.873C187.272 157.548 187.387 157.07 187.304 156.713C186.871 154.834 186.38 152.962 185.883 151.095C184.539 146.089 183.195 141.082 181.813 136.082C181.189 133.814 180.839 131.553 178.297 130.19C172.24 126.942 166.354 123.368 160.386 119.948C158.589 118.916 156.901 117.967 154.551 118.846C151.398 120.03 148.06 120.744 144.786 121.597C141.678 122.406 138.493 122.961 135.455 123.961C133.754 124.521 131.792 124.477 130.614 126.629C126.996 133.216 123.04 139.611 119.244 146.102C118.792 146.885 118.486 147.758 118.206 148.376Z" fill="#0DCF00"/>
<path d="M4.01012 152.758C3.03556 70.0922 72.6051 2.91763 157.048 4.01321C193.444 6.05788 225.987 17.8354 252.765 43.1167C285.722 74.2325 302.958 112.533 301.544 158.064C300.417 194.25 287.722 226.264 262.517 252.826C232.675 284.266 196.081 301.458 152.748 301.452C71.1401 301.445 3.92094 235.678 4.01012 152.758ZM229.114 265.597C233.643 262.119 237.885 258.96 242.007 255.654C244.37 253.762 246.695 251.775 248.765 249.577C251.886 246.265 254.924 242.844 257.708 239.252C261.797 233.965 265.982 228.691 269.473 223.015C272.791 217.627 275.46 211.805 278.059 206.008C280.053 201.556 281.473 196.842 283.193 192.263C283.531 191.365 283.301 190.9 282.511 190.454C279.83 188.938 277.174 187.364 274.505 185.817C267.046 181.485 259.593 177.135 252.115 172.829C245.153 168.822 238.153 164.873 231.191 160.873C225.535 157.624 219.898 154.344 214.26 151.057C210.177 148.681 206.12 146.254 202.024 143.898C200.19 142.84 198.285 141.891 195.928 140.63C207.05 182.466 218.031 223.831 229.114 265.597ZM130.735 191.995C130.06 191.46 129.569 190.957 128.983 190.626C124.193 187.88 119.371 185.186 114.588 182.428C105.568 177.23 96.5679 172.001 87.5675 166.771C81.7838 163.408 76.0384 159.994 70.242 156.65C63.1462 152.56 56.0058 148.548 48.8972 144.471C43.3492 141.292 37.8267 138.069 32.2915 134.872C28.4569 132.662 24.6224 130.451 20.7751 128.26C20.3037 127.993 19.4693 127.547 19.3101 127.7C18.8578 128.139 18.5075 128.821 18.412 129.458C18.0616 131.712 17.7686 133.974 17.5712 136.241C17.1125 141.554 16.38 146.872 16.3928 152.185C16.4055 157.739 17.0743 163.3 17.6221 168.841C17.9916 172.619 18.3928 176.421 19.2145 180.109C20.4248 185.517 21.686 190.963 23.5459 196.174C26.0619 203.225 28.7181 210.257 32.4507 216.818C33.2023 218.136 33.9476 217.901 34.8776 217.652C38.9287 216.557 42.9479 215.372 46.9991 214.289C49.9928 213.486 53.0184 212.837 56.0121 212.028C59.9486 210.97 63.8532 209.773 67.796 208.728C71.8535 207.652 75.9556 206.747 80.0067 205.664C85.6821 204.142 91.3193 202.467 96.9946 200.951C101.938 199.632 106.938 198.505 111.881 197.186C118.072 195.556 124.219 193.804 130.735 191.995ZM265.702 76.6148C265.231 76.0415 264.753 75.481 264.294 74.895C261.135 70.863 258.198 66.6335 254.791 62.8244C247.204 54.3337 238.752 46.7983 229.223 40.4732C223.375 36.5941 217.49 32.7978 211.069 29.9888C205.037 27.3517 198.833 25.0968 192.68 22.7273C191.699 22.3515 190.986 22.5299 190.31 23.7337C186.113 31.199 181.743 38.5751 177.444 45.983C172.233 54.9579 167.029 63.9328 161.825 72.9076C158.252 79.0671 154.698 85.2393 151.118 91.3924C149.035 94.9722 146.888 98.5074 144.812 102.093C143.455 104.438 142.181 106.826 140.869 109.196C140.971 109.387 141.066 109.571 141.168 109.763C182.648 98.7239 224.127 87.6789 265.702 76.6148ZM113.498 131.133C135.245 93.7492 156.914 56.4993 178.654 19.1285C177.253 19.0393 176.074 19.0265 174.909 18.88C169.921 18.2494 164.946 17.1793 159.946 17.0265C153.494 16.829 147.003 17.1475 140.557 17.6252C135.678 17.9883 130.799 18.7272 126.009 19.7208C120.129 20.9374 114.199 22.1795 108.556 24.1732C102.16 26.4345 96.071 29.5684 89.8288 32.2818C87.1153 33.4602 87.542 34.1545 88.0643 36.4094C88.6058 38.7343 89.3128 41.021 89.9243 43.3269C91.1855 48.0659 92.4085 52.8177 93.6824 57.5567C95.0009 62.455 96.3831 67.3405 97.6889 72.2452C99.1922 77.8887 100.594 83.5641 102.116 89.2013C103.88 95.7302 105.772 102.221 107.543 108.75C109.562 116.151 111.498 123.585 113.498 131.133ZM39.9287 229.016C40.9033 230.328 41.7504 231.576 42.7059 232.748C46.5723 237.5 50.1584 242.538 54.4325 246.895C60.8021 253.399 67.5667 259.552 75.274 264.507C79.9367 267.501 84.6184 270.489 89.4657 273.164C96.2558 276.909 103.492 279.693 110.83 282.196C114.205 283.349 114.613 283.298 115.798 281.228C120.199 273.559 124.607 265.883 129.04 258.227C134.225 249.252 139.436 240.29 144.64 231.328C149.876 222.308 155.124 213.289 160.36 204.269C161.87 201.671 163.367 199.059 164.87 196.448C164.793 196.295 164.717 196.135 164.641 195.983C123.149 206.977 81.6628 217.964 39.9287 229.016ZM175.055 113.591C175.036 113.75 175.023 113.903 175.004 114.062C212.107 135.477 249.211 156.885 286.626 178.479C287.365 174.103 288.467 170.052 288.645 165.962C288.977 158.21 288.837 150.427 288.754 142.662C288.728 140.152 288.403 137.617 287.97 135.133C287.187 130.598 286.397 126.05 285.289 121.591C284.053 116.623 282.76 111.635 280.951 106.864C278.677 100.858 275.868 95.0614 273.275 89.1758C272.912 88.3541 272.53 87.5197 271.358 87.8254C270.231 88.1184 269.097 88.3923 267.969 88.6981C263.065 90.0421 258.173 91.4179 253.268 92.7364C249.434 93.7683 245.574 94.7047 241.733 95.7302C236.822 97.0424 231.93 98.4309 227.012 99.7304C223.006 100.794 218.974 101.743 214.967 102.801C210.012 104.113 205.082 105.514 200.132 106.833C197.03 107.661 193.903 108.38 190.801 109.189C187.533 110.043 184.272 110.928 181.017 111.833C179.017 112.393 177.042 113.005 175.055 113.591ZM109.103 164.733C109.237 164.644 109.377 164.555 109.511 164.465C98.4788 123.19 87.4465 81.908 76.325 40.2758C74.7008 41.4988 73.4205 42.3969 72.2102 43.3842C67.4521 47.2633 62.4965 50.9322 58.0377 55.1299C54.1713 58.7733 50.8463 62.99 47.3558 67.0221C42.4129 72.7293 38.1134 78.9015 34.4635 85.5132C29.6544 94.2142 25.4887 103.195 22.444 112.693C21.8516 114.54 22.7115 115.1 23.7625 115.718C29.8965 119.317 36.0623 122.859 42.2282 126.4C52.0438 132.037 61.8786 137.655 71.6943 143.286C77.8155 146.796 83.9304 150.318 90.0326 153.854C94.1155 156.217 98.1667 158.643 102.262 161C104.517 162.3 106.823 163.491 109.103 164.733ZM191.775 174.759C170.029 212.283 148.576 249.316 127.028 286.502C127.996 286.598 128.747 286.648 129.493 286.757C134.123 287.406 138.735 288.477 143.385 288.629C152.602 288.942 161.857 289.222 171.004 287.413C176.316 286.362 181.711 285.661 186.973 284.394C191.546 283.292 196.062 281.833 200.451 280.132C205.91 278.018 211.216 275.495 216.579 273.132C217.388 272.775 218.19 272.361 217.891 271.202C217.362 269.176 216.878 267.132 216.318 265.113C214.999 260.342 213.617 255.584 212.324 250.806C211.26 246.87 210.324 242.902 209.273 238.965C208.19 234.92 207.024 230.895 205.929 226.85C204.903 223.079 203.948 219.283 202.922 215.512C201.833 211.525 200.661 207.563 199.597 203.569C198.534 199.581 197.597 195.556 196.546 191.562C195.463 187.46 194.311 183.371 193.17 179.281C192.769 177.893 192.317 176.523 191.775 174.759ZM118.206 148.376C118.76 150.758 119.206 152.879 119.76 154.968C121.359 160.994 122.983 167.013 124.665 173.02C124.836 173.625 125.34 174.3 125.881 174.619C133.072 178.829 140.289 182.982 147.519 187.129C147.844 187.313 148.341 187.403 148.697 187.32C151.589 186.619 154.475 185.887 157.354 185.116C161.456 184.02 165.583 182.995 169.628 181.721C171.475 181.141 173.66 181.332 174.909 179.084C178.864 171.956 183.023 164.943 187.081 157.873C187.272 157.548 187.387 157.07 187.304 156.713C186.871 154.834 186.38 152.962 185.883 151.095C184.539 146.089 183.195 141.082 181.813 136.082C181.189 133.814 180.839 131.553 178.297 130.19C172.24 126.942 166.354 123.368 160.386 119.948C158.589 118.916 156.901 117.967 154.551 118.846C151.398 120.03 148.06 120.744 144.786 121.597C141.678 122.406 138.493 122.961 135.455 123.961C133.754 124.521 131.792 124.477 130.614 126.629C126.996 133.216 123.04 139.611 119.244 146.102C118.792 146.885 118.486 147.758 118.206 148.376Z" stroke="#0DCF00" stroke-width="8" mask="url(#path-1-outside-1_476_7)"/>
<path d="M337.875 231V74.175H441.375V94.65H360.825V140.55H430.8V161.025H360.825V231H337.875ZM526.523 231L524.723 210.525V161.25C524.723 153.45 522.473 147.45 517.973 143.25C513.473 139.05 506.948 136.95 498.398 136.95C492.398 136.95 486.623 138.15 481.073 140.55C475.673 142.95 470.498 146.85 465.548 152.25L451.823 138.075C458.423 131.175 465.698 126.15 473.648 123C481.748 119.7 490.523 118.05 499.973 118.05C514.823 118.05 526.298 121.875 534.398 129.525C542.648 137.025 546.773 147.6 546.773 161.25V231H526.523ZM490.748 233.025C482.498 233.025 475.223 231.525 468.923 228.525C462.623 225.525 457.748 221.4 454.298 216.15C450.848 210.75 449.123 204.525 449.123 197.475C449.123 191.325 450.398 186.075 452.948 181.725C455.498 177.225 458.798 173.775 462.848 171.375C466.598 168.975 470.873 167.325 475.673 166.425C480.623 165.375 485.873 164.85 491.423 164.85H526.748V181.5H494.573C491.573 181.5 488.423 181.8 485.123 182.4C481.973 182.85 479.273 183.9 477.023 185.55C475.223 186.9 473.798 188.625 472.748 190.725C471.698 192.675 471.173 195 471.173 197.7C471.173 202.95 473.198 207.15 477.248 210.3C481.298 213.45 486.698 215.025 493.448 215.025C499.148 215.025 504.323 213.75 508.973 211.2C513.773 208.5 517.598 204.9 520.448 200.4C523.298 195.75 524.723 190.5 524.723 184.65L532.598 195C531.248 202.8 528.623 209.625 524.723 215.475C520.823 221.175 515.948 225.525 510.098 228.525C504.398 231.525 497.948 233.025 490.748 233.025ZM613.372 233.025C605.572 233.025 598.672 231.9 592.672 229.65C586.672 227.25 581.497 224.25 577.147 220.65C572.947 216.9 569.572 213.075 567.022 209.175L582.097 196.125C584.947 201.225 588.997 205.65 594.247 209.4C599.647 213 606.097 214.8 613.597 214.8C620.197 214.8 625.372 213.45 629.122 210.75C633.022 207.9 634.972 204.225 634.972 199.725C634.972 196.125 633.772 193.275 631.372 191.175C628.972 188.925 625.822 187.125 621.922 185.775C618.022 184.275 613.747 183 609.097 181.95C604.897 180.75 600.622 179.4 596.272 177.9C591.922 176.4 587.947 174.525 584.347 172.275C580.897 169.875 578.047 166.875 575.797 163.275C573.697 159.525 572.647 154.95 572.647 149.55C572.647 140.1 576.247 132.525 583.447 126.825C590.797 120.975 600.472 118.05 612.472 118.05C621.022 118.05 628.822 119.85 635.872 123.45C642.922 126.9 648.397 132.075 652.297 138.975L638.572 149.55C635.572 144.6 631.672 141 626.872 138.75C622.222 136.5 617.122 135.375 611.572 135.375C606.322 135.375 601.897 136.5 598.297 138.75C594.847 140.85 593.122 143.775 593.122 147.525C593.122 150.225 593.872 152.475 595.372 154.275C597.022 155.925 599.497 157.425 602.797 158.775C606.247 159.975 610.447 161.175 615.397 162.375C620.047 163.425 624.772 164.7 629.572 166.2C634.372 167.7 638.797 169.65 642.847 172.05C646.897 174.45 650.197 177.675 652.747 181.725C655.297 185.775 656.572 191.025 656.572 197.475C656.572 204.525 654.772 210.75 651.172 216.15C647.572 221.4 642.547 225.525 636.097 228.525C629.647 231.525 622.072 233.025 613.372 233.025ZM681.93 231V74.175H704.205V144.15L699.48 145.725C701.43 139.575 704.28 134.475 708.03 130.425C711.93 126.375 716.355 123.3 721.305 121.2C726.405 119.1 731.805 118.05 737.505 118.05C749.805 118.05 759.405 121.65 766.305 128.85C773.355 135.9 776.88 146.25 776.88 159.9V231H754.83V168C754.83 157.35 752.88 149.55 748.98 144.6C745.23 139.65 739.38 137.175 731.43 137.175C722.58 137.175 715.83 140.325 711.18 146.625C706.53 152.775 704.205 162.675 704.205 176.325V231H681.93ZM862.545 233.025C855.945 233.025 849.87 231.75 844.32 229.2C838.92 226.5 834.27 222.675 830.37 217.725C826.62 212.625 823.77 206.475 821.82 199.275L828.345 199.05V231H806.295V74.175H828.345V152.025L822.72 150.675C824.22 144.225 826.845 138.6 830.595 133.8C834.345 128.85 838.92 125.025 844.32 122.325C849.87 119.475 855.945 118.05 862.545 118.05C871.695 118.05 880.02 120.375 887.52 125.025C895.02 129.675 900.945 136.275 905.295 144.825C909.645 153.375 911.82 163.575 911.82 175.425C911.82 186.225 909.795 196.05 905.745 204.9C901.695 213.6 895.92 220.5 888.42 225.6C881.07 230.55 872.445 233.025 862.545 233.025ZM857.82 212.775C864.27 212.775 869.82 211.2 874.47 208.05C879.27 204.9 883.02 200.55 885.72 195C888.42 189.3 889.77 182.775 889.77 175.425C889.77 168.075 888.42 161.625 885.72 156.075C883.02 150.375 879.27 146.025 874.47 143.025C869.82 139.875 864.27 138.3 857.82 138.3C851.52 138.3 845.97 139.875 841.17 143.025C836.52 146.025 832.845 150.375 830.145 156.075C827.595 161.625 826.32 168.075 826.32 175.425C826.32 182.775 827.595 189.3 830.145 195C832.845 200.55 836.52 204.9 841.17 208.05C845.97 211.2 851.52 212.775 857.82 212.775ZM937.247 231V120.075H959.297V231H937.247ZM935.672 100.95V74.175H960.647V100.95H935.672ZM982.567 231V215.7L1049.84 132.675L1051.19 138.075H985.492V120.075H1071.44V136.275L1004.84 219.75L1003.49 213H1071.22V231H982.567Z" fill="black"/>
</svg>
