<svg width="301" height="154" viewBox="0 0 301 154" fill="none" xmlns="http://www.w3.org/2000/svg">
<path d="M0 77L156 0V154L0 77Z" fill="url(#paint0_linear_1_7)"/>
<path d="M52.854 75.37H65.622V80.31H52.854V75.37ZM53.31 90H47.154V63.4H67.256V68.34H53.31V90ZM82.9518 90V86.01L82.5718 85.136V77.992C82.5718 76.7253 82.1791 75.7373 81.3938 75.028C80.6338 74.3187 79.4558 73.964 77.8598 73.964C76.7704 73.964 75.6938 74.1413 74.6298 74.496C73.5911 74.8253 72.7044 75.2813 71.9698 75.864L69.8418 71.722C70.9564 70.9367 72.2991 70.3287 73.8698 69.898C75.4404 69.4673 77.0364 69.252 78.6578 69.252C81.7738 69.252 84.1931 69.9867 85.9158 71.456C87.6384 72.9253 88.4998 75.218 88.4998 78.334V90H82.9518ZM76.7198 90.304C75.1238 90.304 73.7558 90.038 72.6158 89.506C71.4758 88.9487 70.6018 88.2013 69.9938 87.264C69.3858 86.3267 69.0818 85.2753 69.0818 84.11C69.0818 82.894 69.3731 81.83 69.9558 80.918C70.5638 80.006 71.5138 79.2967 72.8058 78.79C74.0978 78.258 75.7824 77.992 77.8598 77.992H83.2938V81.45H78.5058C77.1124 81.45 76.1498 81.678 75.6178 82.134C75.1111 82.59 74.8578 83.16 74.8578 83.844C74.8578 84.604 75.1491 85.212 75.7318 85.668C76.3398 86.0987 77.1631 86.314 78.2018 86.314C79.1898 86.314 80.0764 86.086 80.8618 85.63C81.6471 85.1487 82.2171 84.452 82.5718 83.54L83.4838 86.276C83.0531 87.5933 82.2678 88.594 81.1278 89.278C79.9878 89.962 78.5184 90.304 76.7198 90.304ZM100.743 90.304C98.9949 90.304 97.3102 90.1013 95.6889 89.696C94.0929 89.2653 92.8262 88.7333 91.8889 88.1L93.8649 83.844C94.8022 84.4267 95.9042 84.908 97.1709 85.288C98.4629 85.6427 99.7296 85.82 100.971 85.82C102.339 85.82 103.302 85.6553 103.859 85.326C104.442 84.9967 104.733 84.5407 104.733 83.958C104.733 83.4767 104.505 83.122 104.049 82.894C103.618 82.6407 103.036 82.4507 102.301 82.324C101.566 82.1973 100.756 82.0707 99.8689 81.944C99.0076 81.8173 98.1336 81.6527 97.2469 81.45C96.3602 81.222 95.5496 80.8927 94.8149 80.462C94.0802 80.0313 93.4849 79.4487 93.0289 78.714C92.5982 77.9793 92.3829 77.0293 92.3829 75.864C92.3829 74.572 92.7502 73.432 93.4849 72.444C94.2449 71.456 95.3342 70.6833 96.7529 70.126C98.1716 69.5433 99.8689 69.252 101.845 69.252C103.238 69.252 104.657 69.404 106.101 69.708C107.545 70.012 108.748 70.4553 109.711 71.038L107.735 75.256C106.747 74.6733 105.746 74.2807 104.733 74.078C103.745 73.85 102.782 73.736 101.845 73.736C100.528 73.736 99.5649 73.9133 98.9569 74.268C98.3489 74.6227 98.0449 75.0787 98.0449 75.636C98.0449 76.1427 98.2602 76.5227 98.6909 76.776C99.1469 77.0293 99.7422 77.232 100.477 77.384C101.212 77.536 102.01 77.6753 102.871 77.802C103.758 77.9033 104.644 78.068 105.531 78.296C106.418 78.524 107.216 78.8533 107.925 79.284C108.66 79.6893 109.255 80.2593 109.711 80.994C110.167 81.7033 110.395 82.6407 110.395 83.806C110.395 85.0727 110.015 86.2 109.255 87.188C108.495 88.1507 107.393 88.9107 105.949 89.468C104.53 90.0253 102.795 90.304 100.743 90.304ZM126.478 69.252C128.1 69.252 129.544 69.5813 130.81 70.24C132.102 70.8733 133.116 71.8613 133.85 73.204C134.585 74.5213 134.952 76.2187 134.952 78.296V90H129.024V79.208C129.024 77.5613 128.657 76.3453 127.922 75.56C127.213 74.7747 126.2 74.382 124.882 74.382C123.945 74.382 123.096 74.5847 122.336 74.99C121.602 75.37 121.019 75.9653 120.588 76.776C120.183 77.5867 119.98 78.6253 119.98 79.892V90H114.052V61.804H119.98V75.218L118.65 73.508C119.385 72.14 120.436 71.0887 121.804 70.354C123.172 69.6193 124.73 69.252 126.478 69.252Z" fill="white"/>
<path d="M157.206 75.37H169.974V80.31H157.206V75.37ZM157.662 90H151.506V63.4H171.608V68.34H157.662V90ZM187.303 90V86.01L186.923 85.136V77.992C186.923 76.7253 186.531 75.7373 185.745 75.028C184.985 74.3187 183.807 73.964 182.211 73.964C181.122 73.964 180.045 74.1413 178.981 74.496C177.943 74.8253 177.056 75.2813 176.321 75.864L174.193 71.722C175.308 70.9367 176.651 70.3287 178.221 69.898C179.792 69.4673 181.388 69.252 183.009 69.252C186.125 69.252 188.545 69.9867 190.267 71.456C191.99 72.9253 192.851 75.218 192.851 78.334V90H187.303ZM181.071 90.304C179.475 90.304 178.107 90.038 176.967 89.506C175.827 88.9487 174.953 88.2013 174.345 87.264C173.737 86.3267 173.433 85.2753 173.433 84.11C173.433 82.894 173.725 81.83 174.307 80.918C174.915 80.006 175.865 79.2967 177.157 78.79C178.449 78.258 180.134 77.992 182.211 77.992H187.645V81.45H182.857C181.464 81.45 180.501 81.678 179.969 82.134C179.463 82.59 179.209 83.16 179.209 83.844C179.209 84.604 179.501 85.212 180.083 85.668C180.691 86.0987 181.515 86.314 182.553 86.314C183.541 86.314 184.428 86.086 185.213 85.63C185.999 85.1487 186.569 84.452 186.923 83.54L187.835 86.276C187.405 87.5933 186.619 88.594 185.479 89.278C184.339 89.962 182.87 90.304 181.071 90.304ZM205.094 90.304C203.346 90.304 201.662 90.1013 200.04 89.696C198.444 89.2653 197.178 88.7333 196.24 88.1L198.216 83.844C199.154 84.4267 200.256 84.908 201.522 85.288C202.814 85.6427 204.081 85.82 205.322 85.82C206.69 85.82 207.653 85.6553 208.21 85.326C208.793 84.9967 209.084 84.5407 209.084 83.958C209.084 83.4767 208.856 83.122 208.4 82.894C207.97 82.6407 207.387 82.4507 206.652 82.324C205.918 82.1973 205.107 82.0707 204.22 81.944C203.359 81.8173 202.485 81.6527 201.598 81.45C200.712 81.222 199.901 80.8927 199.166 80.462C198.432 80.0313 197.836 79.4487 197.38 78.714C196.95 77.9793 196.734 77.0293 196.734 75.864C196.734 74.572 197.102 73.432 197.836 72.444C198.596 71.456 199.686 70.6833 201.104 70.126C202.523 69.5433 204.22 69.252 206.196 69.252C207.59 69.252 209.008 69.404 210.452 69.708C211.896 70.012 213.1 70.4553 214.062 71.038L212.086 75.256C211.098 74.6733 210.098 74.2807 209.084 74.078C208.096 73.85 207.134 73.736 206.196 73.736C204.879 73.736 203.916 73.9133 203.308 74.268C202.7 74.6227 202.396 75.0787 202.396 75.636C202.396 76.1427 202.612 76.5227 203.042 76.776C203.498 77.0293 204.094 77.232 204.828 77.384C205.563 77.536 206.361 77.6753 207.222 77.802C208.109 77.9033 208.996 78.068 209.882 78.296C210.769 78.524 211.567 78.8533 212.276 79.284C213.011 79.6893 213.606 80.2593 214.062 80.994C214.518 81.7033 214.746 82.6407 214.746 83.806C214.746 85.0727 214.366 86.2 213.606 87.188C212.846 88.1507 211.744 88.9107 210.3 89.468C208.882 90.0253 207.146 90.304 205.094 90.304ZM230.83 69.252C232.451 69.252 233.895 69.5813 235.162 70.24C236.454 70.8733 237.467 71.8613 238.202 73.204C238.937 74.5213 239.304 76.2187 239.304 78.296V90H233.376V79.208C233.376 77.5613 233.009 76.3453 232.274 75.56C231.565 74.7747 230.551 74.382 229.234 74.382C228.297 74.382 227.448 74.5847 226.688 74.99C225.953 75.37 225.371 75.9653 224.94 76.776C224.535 77.5867 224.332 78.6253 224.332 79.892V90H218.404V61.804H224.332V75.218L223.002 73.508C223.737 72.14 224.788 71.0887 226.156 70.354C227.524 69.6193 229.082 69.252 230.83 69.252ZM256.761 90.304C254.963 90.304 253.417 89.924 252.125 89.164C250.833 88.404 249.845 87.2513 249.161 85.706C248.477 84.1353 248.135 82.1593 248.135 79.778C248.135 77.3713 248.49 75.3953 249.199 73.85C249.934 72.3047 250.947 71.152 252.239 70.392C253.531 69.632 255.039 69.252 256.761 69.252C258.687 69.252 260.409 69.6827 261.929 70.544C263.475 71.4053 264.691 72.6213 265.577 74.192C266.489 75.7627 266.945 77.6247 266.945 79.778C266.945 81.906 266.489 83.7553 265.577 85.326C264.691 86.8967 263.475 88.1253 261.929 89.012C260.409 89.8733 258.687 90.304 256.761 90.304ZM244.677 90V61.804H250.605V73.698L250.225 79.74L250.339 85.82V90H244.677ZM255.735 85.44C256.723 85.44 257.597 85.212 258.357 84.756C259.143 84.3 259.763 83.654 260.219 82.818C260.701 81.9567 260.941 80.9433 260.941 79.778C260.941 78.5873 260.701 77.574 260.219 76.738C259.763 75.902 259.143 75.256 258.357 74.8C257.597 74.344 256.723 74.116 255.735 74.116C254.747 74.116 253.861 74.344 253.075 74.8C252.29 75.256 251.669 75.902 251.213 76.738C250.757 77.574 250.529 78.5873 250.529 79.778C250.529 80.9433 250.757 81.9567 251.213 82.818C251.669 83.654 252.29 84.3 253.075 84.756C253.861 85.212 254.747 85.44 255.735 85.44ZM270.914 90V69.556H276.842V90H270.914ZM273.878 66.706C272.788 66.706 271.902 66.3893 271.218 65.756C270.534 65.1227 270.192 64.3373 270.192 63.4C270.192 62.4627 270.534 61.6773 271.218 61.044C271.902 60.4107 272.788 60.094 273.878 60.094C274.967 60.094 275.854 60.398 276.538 61.006C277.222 61.5887 277.564 62.3487 277.564 63.286C277.564 64.274 277.222 65.0973 276.538 65.756C275.879 66.3893 274.992 66.706 273.878 66.706ZM280.937 90V86.428L293.021 72.14L294.047 74.116H281.203V69.556H298.835V73.128L286.751 87.416L285.687 85.44H299.177V90H280.937Z" fill="black"/>
<defs>
<linearGradient id="paint0_linear_1_7" x1="159.805" y1="71.952" x2="2.53819" y2="77.0504" gradientUnits="userSpaceOnUse">
<stop stop-color="#3CFF38" stop-opacity="0"/>
<stop offset="1" stop-color="#3AFF36"/>
</linearGradient>
</defs>
</svg>
