<svg width="323" height="154" viewBox="0 0 323 154" fill="none" xmlns="http://www.w3.org/2000/svg">
<path d="M0 77L156 5.6838e-06L156 154L0 77Z" fill="url(#paint0_linear_20_10)"/>
<path d="M47.5156 96V64H67.3594V68.1562H52.3438V77.9062H65.9375V82.0469H52.3438V96H47.5156ZM79.8203 96.5313C78.2995 96.5313 76.9245 96.25 75.6953 95.6875C74.4661 95.1146 73.4922 94.2865 72.7734 93.2031C72.0651 92.1198 71.7109 90.7917 71.7109 89.2187C71.7109 87.8646 71.9714 86.75 72.4922 85.875C73.013 85 73.7161 84.3073 74.6016 83.7969C75.487 83.2865 76.4766 82.901 77.5703 82.6406C78.6641 82.3802 79.7786 82.1823 80.9141 82.0469C82.3516 81.8802 83.5182 81.7448 84.4141 81.6406C85.3099 81.526 85.9609 81.3437 86.3672 81.0938C86.7734 80.8437 86.9766 80.4375 86.9766 79.875V79.7656C86.9766 78.401 86.5911 77.3437 85.8203 76.5937C85.0599 75.8437 83.9245 75.4687 82.4141 75.4687C80.8411 75.4687 79.6016 75.8177 78.6953 76.5156C77.7995 77.2031 77.1797 77.9687 76.8359 78.8125L72.4453 77.8125C72.9661 76.3542 73.7266 75.1771 74.7266 74.2812C75.737 73.375 76.8984 72.7187 78.2109 72.3125C79.5234 71.8958 80.9036 71.6875 82.3516 71.6875C83.3099 71.6875 84.3255 71.8021 85.3984 72.0313C86.4818 72.25 87.4922 72.6562 88.4297 73.25C89.3776 73.8437 90.1536 74.6927 90.7578 75.7969C91.362 76.8906 91.6641 78.3125 91.6641 80.0625V96H87.1016V92.7187H86.9141C86.612 93.3229 86.1589 93.9167 85.5547 94.5C84.9505 95.0833 84.1745 95.5677 83.2266 95.9531C82.2786 96.3385 81.1432 96.5313 79.8203 96.5313ZM80.8359 92.7812C82.1276 92.7812 83.2318 92.526 84.1484 92.0156C85.0755 91.5052 85.7786 90.8385 86.2578 90.0156C86.7474 89.1823 86.9922 88.2917 86.9922 87.3438V84.25C86.8255 84.4167 86.5026 84.5729 86.0234 84.7187C85.5547 84.8542 85.0182 84.974 84.4141 85.0781C83.8099 85.1719 83.2214 85.2604 82.6484 85.3438C82.0755 85.4167 81.5964 85.4792 81.2109 85.5312C80.3047 85.6458 79.4766 85.8385 78.7266 86.1094C77.987 86.3802 77.3932 86.7708 76.9453 87.2812C76.5078 87.7812 76.2891 88.4479 76.2891 89.2812C76.2891 90.4375 76.7161 91.3125 77.5703 91.9062C78.4245 92.4896 79.513 92.7812 80.8359 92.7812ZM115.871 77.8594L111.637 78.6094C111.46 78.0677 111.178 77.5521 110.793 77.0625C110.418 76.5729 109.908 76.1719 109.262 75.8594C108.616 75.5469 107.809 75.3906 106.84 75.3906C105.517 75.3906 104.413 75.6875 103.527 76.2812C102.642 76.8646 102.199 77.6198 102.199 78.5469C102.199 79.349 102.496 79.9948 103.09 80.4844C103.684 80.974 104.642 81.375 105.965 81.6875L109.777 82.5625C111.986 83.0729 113.632 83.8594 114.715 84.9219C115.798 85.9844 116.34 87.3646 116.34 89.0625C116.34 90.5 115.923 91.7812 115.09 92.9062C114.267 94.0208 113.116 94.8958 111.637 95.5312C110.168 96.1667 108.465 96.4844 106.527 96.4844C103.84 96.4844 101.647 95.9115 99.9492 94.7656C98.2513 93.6094 97.2096 91.9687 96.8242 89.8437L101.34 89.1562C101.621 90.3333 102.199 91.224 103.074 91.8281C103.949 92.4219 105.09 92.7187 106.496 92.7187C108.027 92.7187 109.251 92.401 110.168 91.7656C111.085 91.1198 111.543 90.3333 111.543 89.4063C111.543 88.6562 111.262 88.026 110.699 87.5156C110.147 87.0052 109.298 86.6198 108.152 86.3594L104.09 85.4687C101.85 84.9583 100.194 84.1458 99.1211 83.0313C98.0586 81.9167 97.5273 80.5052 97.5273 78.7969C97.5273 77.3802 97.9232 76.1406 98.7148 75.0781C99.5065 74.0156 100.6 73.1875 101.996 72.5937C103.392 71.9896 104.991 71.6875 106.793 71.6875C109.387 71.6875 111.428 72.25 112.918 73.375C114.408 74.4896 115.392 75.9844 115.871 77.8594ZM126.148 81.75V96H121.477V64H126.086V75.9062H126.383C126.945 74.6146 127.805 73.5885 128.961 72.8281C130.117 72.0677 131.628 71.6875 133.492 71.6875C135.138 71.6875 136.576 72.026 137.805 72.7031C139.044 73.3802 140.003 74.3906 140.68 75.7344C141.367 77.0677 141.711 78.7344 141.711 80.7344V96H137.039V81.2969C137.039 79.5365 136.586 78.1719 135.68 77.2031C134.773 76.224 133.513 75.7344 131.898 75.7344C130.794 75.7344 129.805 75.9687 128.93 76.4375C128.065 76.9062 127.383 77.5937 126.883 78.5C126.393 79.3958 126.148 80.4792 126.148 81.75Z" fill="white"/>
<path d="M159.516 96V64H179.359V68.1562H164.344V77.9062H177.938V82.0469H164.344V96H159.516ZM191.82 96.5313C190.299 96.5313 188.924 96.25 187.695 95.6875C186.466 95.1146 185.492 94.2865 184.773 93.2031C184.065 92.1198 183.711 90.7917 183.711 89.2187C183.711 87.8646 183.971 86.75 184.492 85.875C185.013 85 185.716 84.3073 186.602 83.7969C187.487 83.2865 188.477 82.901 189.57 82.6406C190.664 82.3802 191.779 82.1823 192.914 82.0469C194.352 81.8802 195.518 81.7448 196.414 81.6406C197.31 81.526 197.961 81.3437 198.367 81.0938C198.773 80.8437 198.977 80.4375 198.977 79.875V79.7656C198.977 78.401 198.591 77.3437 197.82 76.5937C197.06 75.8437 195.924 75.4687 194.414 75.4687C192.841 75.4687 191.602 75.8177 190.695 76.5156C189.799 77.2031 189.18 77.9687 188.836 78.8125L184.445 77.8125C184.966 76.3542 185.727 75.1771 186.727 74.2812C187.737 73.375 188.898 72.7187 190.211 72.3125C191.523 71.8958 192.904 71.6875 194.352 71.6875C195.31 71.6875 196.326 71.8021 197.398 72.0313C198.482 72.25 199.492 72.6562 200.43 73.25C201.378 73.8437 202.154 74.6927 202.758 75.7969C203.362 76.8906 203.664 78.3125 203.664 80.0625V96H199.102V92.7187H198.914C198.612 93.3229 198.159 93.9167 197.555 94.5C196.951 95.0833 196.174 95.5677 195.227 95.9531C194.279 96.3385 193.143 96.5313 191.82 96.5313ZM192.836 92.7812C194.128 92.7812 195.232 92.526 196.148 92.0156C197.076 91.5052 197.779 90.8385 198.258 90.0156C198.747 89.1823 198.992 88.2917 198.992 87.3438V84.25C198.826 84.4167 198.503 84.5729 198.023 84.7187C197.555 84.8542 197.018 84.974 196.414 85.0781C195.81 85.1719 195.221 85.2604 194.648 85.3438C194.076 85.4167 193.596 85.4792 193.211 85.5312C192.305 85.6458 191.477 85.8385 190.727 86.1094C189.987 86.3802 189.393 86.7708 188.945 87.2812C188.508 87.7812 188.289 88.4479 188.289 89.2812C188.289 90.4375 188.716 91.3125 189.57 91.9062C190.424 92.4896 191.513 92.7812 192.836 92.7812ZM227.871 77.8594L223.637 78.6094C223.46 78.0677 223.178 77.5521 222.793 77.0625C222.418 76.5729 221.908 76.1719 221.262 75.8594C220.616 75.5469 219.809 75.3906 218.84 75.3906C217.517 75.3906 216.413 75.6875 215.527 76.2812C214.642 76.8646 214.199 77.6198 214.199 78.5469C214.199 79.349 214.496 79.9948 215.09 80.4844C215.684 80.974 216.642 81.375 217.965 81.6875L221.777 82.5625C223.986 83.0729 225.632 83.8594 226.715 84.9219C227.798 85.9844 228.34 87.3646 228.34 89.0625C228.34 90.5 227.923 91.7812 227.09 92.9062C226.267 94.0208 225.116 94.8958 223.637 95.5312C222.168 96.1667 220.465 96.4844 218.527 96.4844C215.84 96.4844 213.647 95.9115 211.949 94.7656C210.251 93.6094 209.21 91.9687 208.824 89.8437L213.34 89.1562C213.621 90.3333 214.199 91.224 215.074 91.8281C215.949 92.4219 217.09 92.7187 218.496 92.7187C220.027 92.7187 221.251 92.401 222.168 91.7656C223.085 91.1198 223.543 90.3333 223.543 89.4063C223.543 88.6562 223.262 88.026 222.699 87.5156C222.147 87.0052 221.298 86.6198 220.152 86.3594L216.09 85.4687C213.85 84.9583 212.194 84.1458 211.121 83.0313C210.059 81.9167 209.527 80.5052 209.527 78.7969C209.527 77.3802 209.923 76.1406 210.715 75.0781C211.507 74.0156 212.6 73.1875 213.996 72.5937C215.392 71.9896 216.991 71.6875 218.793 71.6875C221.387 71.6875 223.428 72.25 224.918 73.375C226.408 74.4896 227.392 75.9844 227.871 77.8594ZM238.148 81.75V96H233.477V64H238.086V75.9062H238.383C238.945 74.6146 239.805 73.5885 240.961 72.8281C242.117 72.0677 243.628 71.6875 245.492 71.6875C247.138 71.6875 248.576 72.026 249.805 72.7031C251.044 73.3802 252.003 74.3906 252.68 75.7344C253.367 77.0677 253.711 78.7344 253.711 80.7344V96H249.039V81.2969C249.039 79.5365 248.586 78.1719 247.68 77.2031C246.773 76.224 245.513 75.7344 243.898 75.7344C242.794 75.7344 241.805 75.9687 240.93 76.4375C240.065 76.9062 239.383 77.5937 238.883 78.5C238.393 79.3958 238.148 80.4792 238.148 81.75ZM260.32 96V64H264.992V75.8906H265.273C265.544 75.3906 265.935 74.8125 266.445 74.1562C266.956 73.5 267.664 72.9271 268.57 72.4375C269.477 71.9375 270.674 71.6875 272.164 71.6875C274.102 71.6875 275.831 72.1771 277.352 73.1563C278.872 74.1354 280.065 75.5469 280.93 77.3906C281.805 79.2344 282.242 81.4531 282.242 84.0469C282.242 86.6406 281.81 88.8646 280.945 90.7187C280.081 92.5625 278.893 93.9844 277.383 94.9844C275.872 95.974 274.148 96.4688 272.211 96.4688C270.753 96.4688 269.56 96.224 268.633 95.7344C267.716 95.2448 266.997 94.6719 266.477 94.0156C265.956 93.3594 265.555 92.776 265.273 92.2656H264.883V96H260.32ZM264.898 84C264.898 85.6875 265.143 87.1667 265.633 88.4375C266.122 89.7083 266.831 90.7031 267.758 91.4219C268.685 92.1302 269.82 92.4844 271.164 92.4844C272.56 92.4844 273.727 92.1146 274.664 91.375C275.602 90.625 276.31 89.6094 276.789 88.3281C277.279 87.0469 277.523 85.6042 277.523 84C277.523 82.4167 277.284 80.9948 276.805 79.7344C276.336 78.474 275.628 77.4792 274.68 76.75C273.742 76.0208 272.57 75.6562 271.164 75.6562C269.81 75.6562 268.664 76.0052 267.727 76.7031C266.799 77.401 266.096 78.375 265.617 79.625C265.138 80.875 264.898 82.3333 264.898 84ZM287.488 96V72H292.16V96H287.488ZM289.848 68.2969C289.035 68.2969 288.337 68.026 287.754 67.4844C287.181 66.9323 286.895 66.276 286.895 65.5156C286.895 64.7448 287.181 64.0885 287.754 63.5469C288.337 62.9948 289.035 62.7187 289.848 62.7187C290.66 62.7187 291.353 62.9948 291.926 63.5469C292.509 64.0885 292.801 64.7448 292.801 65.5156C292.801 66.276 292.509 66.9323 291.926 67.4844C291.353 68.026 290.66 68.2969 289.848 68.2969ZM297.945 96V92.7969L310.945 76.2812V76.0625H298.367V72H316.773V75.4062L304.273 91.7187V91.9375H317.211V96H297.945Z" fill="#171717"/>
<defs>
<linearGradient id="paint0_linear_20_10" x1="159.805" y1="71.952" x2="2.5382" y2="77.0504" gradientUnits="userSpaceOnUse">
<stop stop-color="#3CFF38" stop-opacity="0"/>
<stop offset="1" stop-color="#3AFF36"/>
</linearGradient>
</defs>
</svg>
